<mxfile host="Electron" agent="Mozilla/5.0 (Macintosh; Intel Mac OS X 10_15_7) AppleWebKit/537.36 (KHTML, like Gecko) draw.io/26.0.16 Chrome/132.0.6834.196 Electron/34.2.0 Safari/537.36" version="26.0.16">
  <diagram name="Page-1" id="5An7zhzPWtjX78W8Vn6z">
    <mxGraphModel dx="4347" dy="2560" grid="1" gridSize="10" guides="1" tooltips="1" connect="1" arrows="1" fold="1" page="1" pageScale="1" pageWidth="850" pageHeight="1100" math="0" shadow="0">
      <root>
        <mxCell id="0" />
        <mxCell id="1" parent="0" />
        <mxCell id="eMaZXVgZZq-h9FBiVX7F-37" value="System Design (10â€“1000+ users)" style="text;align=center;fontStyle=1;verticalAlign=middle;spacingLeft=3;spacingRight=3;strokeColor=none;rotatable=0;points=[[0,0.5],[1,0.5]];portConstraint=eastwest;html=1;fontSize=30;" vertex="1" parent="1">
          <mxGeometry x="-55" y="1050" width="80" height="26" as="geometry" />
        </mxCell>
        <mxCell id="eMaZXVgZZq-h9FBiVX7F-38" value="&lt;h5&gt;&lt;span style=&quot;font-weight: normal;&quot;&gt;Challenges:&lt;/span&gt;&lt;/h5&gt;&lt;div&gt;&lt;span style=&quot;font-weight: normal;&quot;&gt;As more users join the crisis alert platform, we begin to experience performance bottlenecks&amp;nbsp;&lt;/span&gt;&lt;/div&gt;&lt;div&gt;&lt;span style=&quot;font-weight: normal;&quot;&gt;such as delayed alerts,&lt;/span&gt;&lt;/div&gt;&lt;div&gt;&lt;span style=&quot;font-weight: normal;&quot;&gt;&amp;nbsp;slower responses, and higher memory usage.&lt;/span&gt;&lt;/div&gt;&lt;div&gt;&lt;span style=&quot;font-weight: normal;&quot;&gt;&amp;nbsp;The PostgreSQL database starts struggling to handle frequent reads and writes, especially during&amp;nbsp;&lt;/span&gt;&lt;/div&gt;&lt;div&gt;&lt;span style=&quot;font-weight: normal;&quot;&gt;peak crisis times.&amp;nbsp;&lt;/span&gt;&lt;/div&gt;&lt;div&gt;&lt;span style=&quot;font-weight: normal;&quot;&gt;WebSocket connections, which deliver&amp;nbsp;&lt;/span&gt;&lt;/div&gt;&lt;div&gt;&lt;span style=&quot;font-weight: normal;&quot;&gt;real-time updates, begin consuming significant resources. Additionally, the current monolithic&lt;/span&gt;&lt;/div&gt;&lt;div&gt;&lt;span style=&quot;font-weight: normal;&quot;&gt;&amp;nbsp;system cannot support offline alert&amp;nbsp;&lt;/span&gt;&lt;/div&gt;&lt;div&gt;&lt;span style=&quot;font-weight: normal;&quot;&gt;delivery or separate responsibilities between login,&amp;nbsp;&lt;/span&gt;&lt;/div&gt;&lt;div&gt;&lt;span style=&quot;font-weight: normal;&quot;&gt;data, and alert services.&lt;/span&gt;&lt;/div&gt;&lt;div&gt;&lt;span style=&quot;font-weight: normal;&quot;&gt;&lt;br&gt;&lt;/span&gt;&lt;/div&gt;&lt;div&gt;&lt;span style=&quot;font-weight: normal;&quot;&gt;Solution:&lt;/span&gt;&lt;/div&gt;&lt;div&gt;&lt;p class=&quot;&quot; data-end=&quot;1120&quot; data-start=&quot;188&quot;&gt;&lt;span style=&quot;font-weight: normal;&quot;&gt;To support more users efficiently,&lt;/span&gt;&lt;/p&gt;&lt;p class=&quot;&quot; data-end=&quot;1120&quot; data-start=&quot;188&quot;&gt;&lt;span style=&quot;font-weight: normal;&quot;&gt;&amp;nbsp;we must split the system into scalable services.&amp;nbsp;&lt;/span&gt;&lt;/p&gt;&lt;p class=&quot;&quot; data-end=&quot;1120&quot; data-start=&quot;188&quot;&gt;&lt;span style=&quot;font-weight: normal;&quot;&gt;This includes creating a dedicated authentication service to&amp;nbsp;&lt;/span&gt;&lt;/p&gt;&lt;p class=&quot;&quot; data-end=&quot;1120&quot; data-start=&quot;188&quot;&gt;&lt;span style=&quot;font-weight: normal;&quot;&gt;manage user sessions, a real-time alert messaging service that also stores missed alerts,&lt;/span&gt;&lt;/p&gt;&lt;p class=&quot;&quot; data-end=&quot;1120&quot; data-start=&quot;188&quot;&gt;&lt;span style=&quot;font-weight: normal;&quot;&gt;&amp;nbsp;and using a CDN to serve shelter photos and weather data faster. These changes will help the platform&lt;/span&gt;&lt;/p&gt;&lt;p class=&quot;&quot; data-end=&quot;1120&quot; data-start=&quot;188&quot;&gt;&lt;span style=&quot;font-weight: normal;&quot;&gt;&amp;nbsp;remain reliable, even during emergencies with thousands of users online.&lt;/span&gt;&lt;/p&gt;&lt;span style=&quot;font-weight: normal;&quot;&gt;&lt;br&gt;&lt;/span&gt;&lt;hr class=&quot;&quot; data-end=&quot;1125&quot; data-start=&quot;1122&quot;&gt;&lt;br&gt;&lt;p class=&quot;&quot; data-end=&quot;1190&quot; data-start=&quot;1127&quot;&gt;&lt;/p&gt;&lt;/div&gt;" style="text;align=left;fontStyle=1;verticalAlign=middle;spacingLeft=3;spacingRight=3;strokeColor=none;rotatable=0;points=[[0,0.5],[1,0.5]];portConstraint=eastwest;html=1;fontSize=30;" vertex="1" parent="1">
          <mxGeometry x="-345" y="1660" width="80" height="26" as="geometry" />
        </mxCell>
        <mxCell id="eMaZXVgZZq-h9FBiVX7F-42" value="" style="shape=actor;whiteSpace=wrap;html=1;" vertex="1" parent="1">
          <mxGeometry x="252.5" y="2340" width="60" height="100" as="geometry" />
        </mxCell>
        <mxCell id="eMaZXVgZZq-h9FBiVX7F-43" style="edgeStyle=orthogonalEdgeStyle;rounded=0;orthogonalLoop=1;jettySize=auto;html=1;entryX=0;entryY=0.75;entryDx=0;entryDy=0;" edge="1" parent="1" source="eMaZXVgZZq-h9FBiVX7F-45" target="eMaZXVgZZq-h9FBiVX7F-42">
          <mxGeometry relative="1" as="geometry" />
        </mxCell>
        <mxCell id="eMaZXVgZZq-h9FBiVX7F-44" style="edgeStyle=orthogonalEdgeStyle;rounded=0;orthogonalLoop=1;jettySize=auto;html=1;" edge="1" parent="1" source="eMaZXVgZZq-h9FBiVX7F-45">
          <mxGeometry relative="1" as="geometry">
            <mxPoint x="-102.5" y="2534.9999999999995" as="targetPoint" />
          </mxGeometry>
        </mxCell>
        <mxCell id="eMaZXVgZZq-h9FBiVX7F-45" value="devices" style="sketch=0;outlineConnect=0;gradientColor=none;fontColor=#545B64;strokeColor=none;fillColor=#879196;dashed=0;verticalLabelPosition=bottom;verticalAlign=top;align=center;html=1;fontSize=12;fontStyle=0;aspect=fixed;shape=mxgraph.aws4.illustration_devices;pointerEvents=1" vertex="1" parent="1">
          <mxGeometry x="2.5" y="2305" width="100" height="73" as="geometry" />
        </mxCell>
        <mxCell id="eMaZXVgZZq-h9FBiVX7F-46" style="edgeStyle=orthogonalEdgeStyle;rounded=0;orthogonalLoop=1;jettySize=auto;html=1;entryX=1;entryY=0.75;entryDx=0;entryDy=0;" edge="1" parent="1" source="eMaZXVgZZq-h9FBiVX7F-47" target="eMaZXVgZZq-h9FBiVX7F-42">
          <mxGeometry relative="1" as="geometry" />
        </mxCell>
        <mxCell id="eMaZXVgZZq-h9FBiVX7F-47" value="" style="sketch=0;verticalLabelPosition=bottom;sketch=0;aspect=fixed;html=1;verticalAlign=top;strokeColor=none;fillColor=#000000;align=center;outlineConnect=0;pointerEvents=1;shape=mxgraph.citrix2.tablet;" vertex="1" parent="1">
          <mxGeometry x="447.28999999999996" y="2285" width="36.925000000000004" height="50" as="geometry" />
        </mxCell>
        <mxCell id="eMaZXVgZZq-h9FBiVX7F-48" style="edgeStyle=orthogonalEdgeStyle;rounded=0;orthogonalLoop=1;jettySize=auto;html=1;" edge="1" parent="1" source="eMaZXVgZZq-h9FBiVX7F-49">
          <mxGeometry relative="1" as="geometry">
            <mxPoint x="282.5" y="2445" as="targetPoint" />
          </mxGeometry>
        </mxCell>
        <mxCell id="eMaZXVgZZq-h9FBiVX7F-49" value="" style="sketch=0;verticalLabelPosition=bottom;sketch=0;aspect=fixed;html=1;verticalAlign=top;strokeColor=none;fillColor=#000000;align=center;outlineConnect=0;pointerEvents=1;shape=mxgraph.citrix2.mobile;" vertex="1" parent="1">
          <mxGeometry x="467.5" y="2470" width="25.255" height="50" as="geometry" />
        </mxCell>
        <mxCell id="eMaZXVgZZq-h9FBiVX7F-50" style="edgeStyle=orthogonalEdgeStyle;rounded=0;orthogonalLoop=1;jettySize=auto;html=1;" edge="1" parent="1" source="eMaZXVgZZq-h9FBiVX7F-51">
          <mxGeometry relative="1" as="geometry">
            <mxPoint x="-107.5" y="2534.9999999999995" as="targetPoint" />
          </mxGeometry>
        </mxCell>
        <mxCell id="eMaZXVgZZq-h9FBiVX7F-51" value="" style="outlineConnect=0;dashed=0;verticalLabelPosition=bottom;verticalAlign=top;align=center;html=1;shape=mxgraph.aws3.data_encryption_key;fillColor=#7D7C7C;gradientColor=none;" vertex="1" parent="1">
          <mxGeometry x="177.5" y="2520" width="46.5" height="60" as="geometry" />
        </mxCell>
        <mxCell id="eMaZXVgZZq-h9FBiVX7F-52" style="edgeStyle=orthogonalEdgeStyle;rounded=0;orthogonalLoop=1;jettySize=auto;html=1;entryX=1;entryY=0.5;entryDx=0;entryDy=0;entryPerimeter=0;" edge="1" parent="1" source="eMaZXVgZZq-h9FBiVX7F-49" target="eMaZXVgZZq-h9FBiVX7F-51">
          <mxGeometry relative="1" as="geometry">
            <Array as="points">
              <mxPoint x="480.5" y="2550" />
            </Array>
          </mxGeometry>
        </mxCell>
        <mxCell id="eMaZXVgZZq-h9FBiVX7F-53" value="" style="outlineConnect=0;dashed=0;verticalLabelPosition=bottom;verticalAlign=top;align=center;html=1;shape=mxgraph.aws3.data_encryption_key;fillColor=#7D7C7C;gradientColor=none;" vertex="1" parent="1">
          <mxGeometry x="182.5" y="2525" width="46.5" height="60" as="geometry" />
        </mxCell>
        <mxCell id="eMaZXVgZZq-h9FBiVX7F-54" value="" style="outlineConnect=0;dashed=0;verticalLabelPosition=bottom;verticalAlign=top;align=center;html=1;shape=mxgraph.aws3.postgre_sql_instance;fillColor=#2E73B8;gradientColor=none;" vertex="1" parent="1">
          <mxGeometry x="210" y="3397" width="60" height="63" as="geometry" />
        </mxCell>
        <mxCell id="eMaZXVgZZq-h9FBiVX7F-55" value="&lt;div&gt;PostgreSQL Database&amp;nbsp;&amp;nbsp;&lt;/div&gt;&lt;div&gt;(User Data, profiles,resources)&lt;/div&gt;&lt;div&gt;&lt;br&gt;&lt;/div&gt;" style="text;align=center;fontStyle=1;verticalAlign=middle;spacingLeft=3;spacingRight=3;strokeColor=none;rotatable=0;points=[[0,0.5],[1,0.5]];portConstraint=eastwest;html=1;" vertex="1" parent="1">
          <mxGeometry x="75" y="3510" width="80" height="26" as="geometry" />
        </mxCell>
        <mxCell id="eMaZXVgZZq-h9FBiVX7F-56" value="" style="outlineConnect=0;dashed=0;verticalLabelPosition=bottom;verticalAlign=top;align=center;html=1;shape=mxgraph.aws3.s3;fillColor=#E05243;gradientColor=none;" vertex="1" parent="1">
          <mxGeometry x="570" y="3400" width="76.5" height="93" as="geometry" />
        </mxCell>
        <mxCell id="eMaZXVgZZq-h9FBiVX7F-57" value="&lt;div&gt;S3 Bucket&amp;nbsp;&amp;nbsp;&lt;/div&gt;&lt;div&gt;(Media Files like alerts, shelter photos)&lt;/div&gt;" style="text;align=center;fontStyle=1;verticalAlign=middle;spacingLeft=3;spacingRight=3;strokeColor=none;rotatable=0;points=[[0,0.5],[1,0.5]];portConstraint=eastwest;html=1;" vertex="1" parent="1">
          <mxGeometry x="555" y="3510" width="80" height="26" as="geometry" />
        </mxCell>
        <mxCell id="eMaZXVgZZq-h9FBiVX7F-58" style="edgeStyle=orthogonalEdgeStyle;rounded=0;orthogonalLoop=1;jettySize=auto;html=1;exitX=0;exitY=0.21;exitDx=0;exitDy=0;exitPerimeter=0;" edge="1" parent="1" source="eMaZXVgZZq-h9FBiVX7F-59" target="eMaZXVgZZq-h9FBiVX7F-54">
          <mxGeometry relative="1" as="geometry" />
        </mxCell>
        <mxCell id="eMaZXVgZZq-h9FBiVX7F-59" value="" style="outlineConnect=0;dashed=0;verticalLabelPosition=bottom;verticalAlign=top;align=center;html=1;shape=mxgraph.aws3.ec2;fillColor=#F58534;gradientColor=none;" vertex="1" parent="1">
          <mxGeometry x="375" y="3190" width="76.5" height="93" as="geometry" />
        </mxCell>
        <mxCell id="eMaZXVgZZq-h9FBiVX7F-60" value="EC2,App logic:Auth,Maps.Weather,)" style="text;align=center;fontStyle=1;verticalAlign=middle;spacingLeft=3;spacingRight=3;strokeColor=none;rotatable=0;points=[[0,0.5],[1,0.5]];portConstraint=eastwest;html=1;" vertex="1" parent="1">
          <mxGeometry x="249" y="3310" width="80" height="26" as="geometry" />
        </mxCell>
        <mxCell id="eMaZXVgZZq-h9FBiVX7F-61" style="edgeStyle=orthogonalEdgeStyle;rounded=0;orthogonalLoop=1;jettySize=auto;html=1;entryX=0;entryY=0.5;entryDx=0;entryDy=0;entryPerimeter=0;" edge="1" parent="1" source="eMaZXVgZZq-h9FBiVX7F-54" target="eMaZXVgZZq-h9FBiVX7F-59">
          <mxGeometry relative="1" as="geometry" />
        </mxCell>
        <mxCell id="eMaZXVgZZq-h9FBiVX7F-62" style="edgeStyle=orthogonalEdgeStyle;rounded=0;orthogonalLoop=1;jettySize=auto;html=1;entryX=1;entryY=0.5;entryDx=0;entryDy=0;entryPerimeter=0;" edge="1" parent="1" source="eMaZXVgZZq-h9FBiVX7F-59" target="eMaZXVgZZq-h9FBiVX7F-56">
          <mxGeometry relative="1" as="geometry" />
        </mxCell>
        <mxCell id="eMaZXVgZZq-h9FBiVX7F-63" value="Master" style="shape=cylinder3;whiteSpace=wrap;html=1;boundedLbl=1;backgroundOutline=1;size=15;" vertex="1" parent="1">
          <mxGeometry x="-185" y="3235" width="60" height="80" as="geometry" />
        </mxCell>
        <mxCell id="eMaZXVgZZq-h9FBiVX7F-64" value="Slaves" style="shape=cylinder3;whiteSpace=wrap;html=1;boundedLbl=1;backgroundOutline=1;size=15;" vertex="1" parent="1">
          <mxGeometry x="-305" y="3375" width="60" height="80" as="geometry" />
        </mxCell>
        <mxCell id="eMaZXVgZZq-h9FBiVX7F-65" value="Slaves" style="shape=cylinder3;whiteSpace=wrap;html=1;boundedLbl=1;backgroundOutline=1;size=15;" vertex="1" parent="1">
          <mxGeometry x="-60" y="3380" width="60" height="80" as="geometry" />
        </mxCell>
        <mxCell id="eMaZXVgZZq-h9FBiVX7F-66" value="Slaves" style="shape=cylinder3;whiteSpace=wrap;html=1;boundedLbl=1;backgroundOutline=1;size=15;" vertex="1" parent="1">
          <mxGeometry x="-180" y="3380" width="60" height="80" as="geometry" />
        </mxCell>
        <mxCell id="eMaZXVgZZq-h9FBiVX7F-67" value="Replication" style="text;align=center;fontStyle=1;verticalAlign=middle;spacingLeft=3;spacingRight=3;strokeColor=none;rotatable=0;points=[[0,0.5],[1,0.5]];portConstraint=eastwest;html=1;" vertex="1" parent="1">
          <mxGeometry x="-275" y="3262" width="80" height="26" as="geometry" />
        </mxCell>
        <mxCell id="eMaZXVgZZq-h9FBiVX7F-68" style="edgeStyle=orthogonalEdgeStyle;rounded=0;orthogonalLoop=1;jettySize=auto;html=1;exitX=1;exitY=0.5;exitDx=0;exitDy=0;" edge="1" parent="1" source="eMaZXVgZZq-h9FBiVX7F-69" target="eMaZXVgZZq-h9FBiVX7F-54">
          <mxGeometry relative="1" as="geometry">
            <Array as="points">
              <mxPoint x="45" y="3345" />
              <mxPoint x="45" y="3446" />
            </Array>
          </mxGeometry>
        </mxCell>
        <mxCell id="eMaZXVgZZq-h9FBiVX7F-69" value="" style="rounded=0;whiteSpace=wrap;html=1;fillColor=none;" vertex="1" parent="1">
          <mxGeometry x="-370" y="3218" width="410" height="260" as="geometry" />
        </mxCell>
        <mxCell id="eMaZXVgZZq-h9FBiVX7F-70" style="edgeStyle=orthogonalEdgeStyle;rounded=0;orthogonalLoop=1;jettySize=auto;html=1;exitX=0.5;exitY=1;exitDx=0;exitDy=0;exitPerimeter=0;entryX=1.008;entryY=0.45;entryDx=0;entryDy=0;entryPerimeter=0;" edge="1" parent="1" source="eMaZXVgZZq-h9FBiVX7F-54" target="eMaZXVgZZq-h9FBiVX7F-69">
          <mxGeometry relative="1" as="geometry">
            <Array as="points">
              <mxPoint x="113" y="3498" />
              <mxPoint x="59" y="3498" />
              <mxPoint x="59" y="3332" />
            </Array>
          </mxGeometry>
        </mxCell>
        <mxCell id="eMaZXVgZZq-h9FBiVX7F-71" value="" style="image;aspect=fixed;html=1;points=[];align=center;fontSize=12;image=img/lib/azure2/databases/Cache_Redis.svg;" vertex="1" parent="1">
          <mxGeometry x="592.5" y="2362.81" width="95" height="77.19" as="geometry" />
        </mxCell>
        <mxCell id="eMaZXVgZZq-h9FBiVX7F-72" value="Redis Cache" style="text;align=center;fontStyle=0;verticalAlign=middle;spacingLeft=3;spacingRight=3;strokeColor=none;rotatable=0;points=[[0,0.5],[1,0.5]];portConstraint=eastwest;html=1;" vertex="1" parent="1">
          <mxGeometry x="600" y="2475" width="80" height="26" as="geometry" />
        </mxCell>
        <mxCell id="eMaZXVgZZq-h9FBiVX7F-73" value="VoIP&lt;div&gt;Protocol&lt;/div&gt;" style="text;html=1;align=center;verticalAlign=middle;whiteSpace=wrap;rounded=0;" vertex="1" parent="1">
          <mxGeometry x="447.5" y="2386.4" width="60" height="30" as="geometry" />
        </mxCell>
        <mxCell id="eMaZXVgZZq-h9FBiVX7F-74" value="Websockets" style="shape=step;perimeter=stepPerimeter;whiteSpace=wrap;html=1;fixedSize=1;" vertex="1" parent="1">
          <mxGeometry x="-215" y="2945" width="120" height="80" as="geometry" />
        </mxCell>
        <mxCell id="eMaZXVgZZq-h9FBiVX7F-75" style="edgeStyle=orthogonalEdgeStyle;rounded=0;orthogonalLoop=1;jettySize=auto;html=1;" edge="1" parent="1" source="eMaZXVgZZq-h9FBiVX7F-76">
          <mxGeometry relative="1" as="geometry">
            <mxPoint x="160" y="3115" as="targetPoint" />
          </mxGeometry>
        </mxCell>
        <mxCell id="eMaZXVgZZq-h9FBiVX7F-76" value="Websockets" style="shape=step;perimeter=stepPerimeter;whiteSpace=wrap;html=1;fixedSize=1;" vertex="1" parent="1">
          <mxGeometry x="100" y="2945" width="120" height="80" as="geometry" />
        </mxCell>
        <mxCell id="eMaZXVgZZq-h9FBiVX7F-77" value="Websockets" style="shape=step;perimeter=stepPerimeter;whiteSpace=wrap;html=1;fixedSize=1;" vertex="1" parent="1">
          <mxGeometry x="390" y="2945" width="120" height="80" as="geometry" />
        </mxCell>
        <mxCell id="eMaZXVgZZq-h9FBiVX7F-78" style="edgeStyle=orthogonalEdgeStyle;rounded=0;orthogonalLoop=1;jettySize=auto;html=1;entryX=0.5;entryY=0;entryDx=0;entryDy=0;" edge="1" parent="1" source="eMaZXVgZZq-h9FBiVX7F-80" target="eMaZXVgZZq-h9FBiVX7F-74">
          <mxGeometry relative="1" as="geometry" />
        </mxCell>
        <mxCell id="eMaZXVgZZq-h9FBiVX7F-79" style="edgeStyle=orthogonalEdgeStyle;rounded=0;orthogonalLoop=1;jettySize=auto;html=1;entryX=0.5;entryY=0;entryDx=0;entryDy=0;" edge="1" parent="1" source="eMaZXVgZZq-h9FBiVX7F-80" target="eMaZXVgZZq-h9FBiVX7F-77">
          <mxGeometry relative="1" as="geometry" />
        </mxCell>
        <mxCell id="eMaZXVgZZq-h9FBiVX7F-80" value="" style="image;aspect=fixed;html=1;points=[];align=center;fontSize=12;image=img/lib/azure2/networking/Load_Balancers.svg;" vertex="1" parent="1">
          <mxGeometry x="114" y="2775" width="72" height="72" as="geometry" />
        </mxCell>
        <mxCell id="eMaZXVgZZq-h9FBiVX7F-81" value="" style="image;aspect=fixed;html=1;points=[];align=center;fontSize=12;image=img/lib/azure2/general/Storage_Queue.svg;" vertex="1" parent="1">
          <mxGeometry x="-267.5" y="2423" width="64" height="52" as="geometry" />
        </mxCell>
        <mxCell id="eMaZXVgZZq-h9FBiVX7F-82" value="&lt;div&gt;Notification Queue&amp;nbsp;&amp;nbsp;&lt;/div&gt;&lt;div&gt;(For Offline Crisis Alerts)&lt;/div&gt;&lt;div&gt;&lt;br&gt;&lt;/div&gt;" style="text;align=center;fontStyle=0;verticalAlign=middle;spacingLeft=3;spacingRight=3;strokeColor=none;rotatable=0;points=[[0,0.5],[1,0.5]];portConstraint=eastwest;html=1;" vertex="1" parent="1">
          <mxGeometry x="-283.5" y="2377" width="80" height="26" as="geometry" />
        </mxCell>
        <mxCell id="eMaZXVgZZq-h9FBiVX7F-83" style="edgeStyle=orthogonalEdgeStyle;rounded=0;orthogonalLoop=1;jettySize=auto;html=1;exitX=0.95;exitY=0.95;exitDx=0;exitDy=0;exitPerimeter=0;entryX=0;entryY=0.5;entryDx=0;entryDy=0;entryPerimeter=0;" edge="1" parent="1" source="eMaZXVgZZq-h9FBiVX7F-54" target="eMaZXVgZZq-h9FBiVX7F-56">
          <mxGeometry relative="1" as="geometry" />
        </mxCell>
        <mxCell id="eMaZXVgZZq-h9FBiVX7F-84" style="edgeStyle=orthogonalEdgeStyle;rounded=0;orthogonalLoop=1;jettySize=auto;html=1;entryX=0.234;entryY=-0.006;entryDx=0;entryDy=0;entryPerimeter=0;" edge="1" parent="1" source="eMaZXVgZZq-h9FBiVX7F-74">
          <mxGeometry relative="1" as="geometry">
            <mxPoint x="-156.75999999999976" y="3116.9100000000008" as="targetPoint" />
          </mxGeometry>
        </mxCell>
        <mxCell id="eMaZXVgZZq-h9FBiVX7F-85" style="edgeStyle=orthogonalEdgeStyle;rounded=0;orthogonalLoop=1;jettySize=auto;html=1;entryX=0.681;entryY=-0.001;entryDx=0;entryDy=0;entryPerimeter=0;" edge="1" parent="1" source="eMaZXVgZZq-h9FBiVX7F-77">
          <mxGeometry relative="1" as="geometry">
            <mxPoint x="451.15999999999985" y="3119.4850000000006" as="targetPoint" />
          </mxGeometry>
        </mxCell>
        <mxCell id="eMaZXVgZZq-h9FBiVX7F-86" style="edgeStyle=orthogonalEdgeStyle;rounded=0;orthogonalLoop=1;jettySize=auto;html=1;entryX=0.422;entryY=-0.023;entryDx=0;entryDy=0;entryPerimeter=0;" edge="1" parent="1" source="eMaZXVgZZq-h9FBiVX7F-80" target="eMaZXVgZZq-h9FBiVX7F-76">
          <mxGeometry relative="1" as="geometry" />
        </mxCell>
        <mxCell id="eMaZXVgZZq-h9FBiVX7F-87" value="" style="rounded=0;whiteSpace=wrap;html=1;fillColor=none;" vertex="1" parent="1">
          <mxGeometry x="-395" y="2150" width="1235" height="480" as="geometry" />
        </mxCell>
        <mxCell id="eMaZXVgZZq-h9FBiVX7F-88" value="Load balancer NGINX" style="text;html=1;align=center;verticalAlign=middle;whiteSpace=wrap;rounded=0;" vertex="1" parent="1">
          <mxGeometry x="280" y="2735" width="60" height="30" as="geometry" />
        </mxCell>
        <mxCell id="eMaZXVgZZq-h9FBiVX7F-89" style="edgeStyle=orthogonalEdgeStyle;rounded=0;orthogonalLoop=1;jettySize=auto;html=1;entryX=0.44;entryY=0.996;entryDx=0;entryDy=0;entryPerimeter=0;" edge="1" parent="1" source="eMaZXVgZZq-h9FBiVX7F-80" target="eMaZXVgZZq-h9FBiVX7F-87">
          <mxGeometry relative="1" as="geometry" />
        </mxCell>
        <mxCell id="eMaZXVgZZq-h9FBiVX7F-90" value="" style="sketch=0;html=1;aspect=fixed;strokeColor=none;shadow=0;fillColor=#3B8DF1;verticalAlign=top;labelPosition=center;verticalLabelPosition=bottom;shape=mxgraph.gcp2.maps_api" vertex="1" parent="1">
          <mxGeometry x="965" y="3225" width="61" height="100" as="geometry" />
        </mxCell>
        <mxCell id="eMaZXVgZZq-h9FBiVX7F-91" value="" style="aspect=fixed;sketch=0;html=1;dashed=0;whitespace=wrap;verticalLabelPosition=bottom;verticalAlign=top;fillColor=#2875E2;strokeColor=#ffffff;points=[[0.005,0.63,0],[0.1,0.2,0],[0.9,0.2,0],[0.5,0,0],[0.995,0.63,0],[0.72,0.99,0],[0.5,1,0],[0.28,0.99,0]];shape=mxgraph.kubernetes.icon2;kubernetesLabel=1;prIcon=api" vertex="1" parent="1">
          <mxGeometry x="981.73" y="3435" width="72.92" height="70" as="geometry" />
        </mxCell>
        <mxCell id="eMaZXVgZZq-h9FBiVX7F-92" value="Google Maps API" style="text;align=center;fontStyle=1;verticalAlign=middle;spacingLeft=3;spacingRight=3;strokeColor=none;rotatable=0;points=[[0,0.5],[1,0.5]];portConstraint=eastwest;html=1;" vertex="1" parent="1">
          <mxGeometry x="960" y="3345" width="80" height="26" as="geometry" />
        </mxCell>
        <mxCell id="eMaZXVgZZq-h9FBiVX7F-93" value="Weather API" style="text;align=center;fontStyle=1;verticalAlign=middle;spacingLeft=3;spacingRight=3;strokeColor=none;rotatable=0;points=[[0,0.5],[1,0.5]];portConstraint=eastwest;html=1;" vertex="1" parent="1">
          <mxGeometry x="985" y="3536" width="80" height="26" as="geometry" />
        </mxCell>
        <mxCell id="eMaZXVgZZq-h9FBiVX7F-94" style="edgeStyle=orthogonalEdgeStyle;rounded=0;orthogonalLoop=1;jettySize=auto;html=1;entryX=0.064;entryY=0.551;entryDx=0;entryDy=0;entryPerimeter=0;" edge="1" parent="1" source="eMaZXVgZZq-h9FBiVX7F-59" target="eMaZXVgZZq-h9FBiVX7F-90">
          <mxGeometry relative="1" as="geometry" />
        </mxCell>
        <mxCell id="eMaZXVgZZq-h9FBiVX7F-95" style="edgeStyle=orthogonalEdgeStyle;rounded=0;orthogonalLoop=1;jettySize=auto;html=1;exitX=0.5;exitY=1;exitDx=0;exitDy=0;exitPerimeter=0;entryX=0.005;entryY=0.63;entryDx=0;entryDy=0;entryPerimeter=0;" edge="1" parent="1" source="eMaZXVgZZq-h9FBiVX7F-59" target="eMaZXVgZZq-h9FBiVX7F-91">
          <mxGeometry relative="1" as="geometry" />
        </mxCell>
        <mxCell id="eMaZXVgZZq-h9FBiVX7F-96" value="" style="rounded=0;whiteSpace=wrap;html=1;fillColor=none;" vertex="1" parent="1">
          <mxGeometry x="-480" y="3115" width="1695" height="530" as="geometry" />
        </mxCell>
      </root>
    </mxGraphModel>
  </diagram>
</mxfile>
